<svg width="100" height="100" viewBox="0 0 100 100" fill="none" xmlns="http://www.w3.org/2000/svg">
<path d="M11.2069 84.6553V15.3457C11.2069 9.81095 15.5535 5.29078 21.0194 5.01367L21.5516 5H57.7587L58.5585 5.00977C75.3283 5.43431 88.7927 19.1621 88.7928 36.0342C88.7928 52.9064 75.3284 66.635 58.5585 67.0596L57.7587 67.0693H42.2411V84.6553C42.2409 90.1896 37.895 94.7089 32.4296 94.9863L31.8973 95H21.5516V88H31.8963C33.7435 87.9999 35.241 86.5025 35.2411 84.6553V60.0693H57.6737L58.4149 60.0596C71.3832 59.7135 81.7928 49.0886 81.7928 36.0342C81.7927 22.9687 71.3654 12.3366 58.3817 12.0078V12.0068L57.7538 12H21.5516C19.7051 12.0001 18.2069 13.4977 18.2069 15.3457V84.6553C18.207 86.5025 19.7044 87.9999 21.5516 88V95L21.0194 94.9863C15.5536 94.7093 11.2071 90.1898 11.2069 84.6553Z" fill="black"/>
</svg>
